<?xml version="1.0" encoding="UTF-8"?>
<svg id="Laag_1" data-name="Laag 1" xmlns="http://www.w3.org/2000/svg" viewBox="0 0 95 41">
  <defs>
    <style>
      .cls-1 {
        fill: #d51116;
      }

      .cls-1, .cls-2 {
        stroke-width: 0px;
      }

      .cls-2 {
        fill: #fff;
      }
    </style>
  </defs>
  <rect class="cls-2" width="95" height="41" rx="8.5" ry="8.5"/>
  <path class="cls-1" d="M22.77,27.83c-1.13,0-2.1-.17-2.93-.5-.83-.34-1.48-.81-1.95-1.43-.47-.62-.73-1.35-.79-2.19v-.16h2.82v.1c.06.35.21.66.46.93s.59.48,1.02.62c.42.15.9.22,1.45.22s1-.08,1.4-.23c.4-.16.71-.37.93-.64.22-.28.33-.6.33-.96h0c0-.47-.19-.84-.57-1.11-.37-.28-.99-.51-1.87-.69l-1.49-.3c-1.45-.29-2.51-.78-3.18-1.45-.67-.68-1.01-1.56-1.01-2.63h0c0-.88.24-1.63.69-2.29.46-.65,1.1-1.16,1.9-1.51.81-.36,1.73-.54,2.77-.54s2.03.18,2.82.53c.79.35,1.4.84,1.84,1.46.44.61.69,1.32.75,2.12v.13h-2.76l-.02-.12c-.05-.35-.19-.64-.42-.9-.23-.25-.53-.45-.91-.6-.37-.15-.8-.22-1.3-.22s-.91.07-1.28.21c-.36.14-.64.35-.84.61-.2.25-.3.56-.3.91h0c0,.46.19.83.56,1.11.37.29.97.51,1.8.68l1.48.3c1,.2,1.81.48,2.43.82.63.34,1.1.78,1.4,1.3.3.52.45,1.15.45,1.88h0c0,.93-.23,1.74-.68,2.41-.46.68-1.11,1.2-1.96,1.57-.85.36-1.86.55-3.03.55h0ZM36.2,27.83c-1.17,0-2.18-.3-3.02-.9s-1.49-1.45-1.94-2.55c-.45-1.1-.67-2.41-.67-3.93v-.02c0-1.52.22-2.82.67-3.92.46-1.1,1.1-1.95,1.94-2.55s1.85-.9,3.02-.9,2.18.3,3.02.9c.84.6,1.48,1.45,1.93,2.55.46,1.09.68,2.4.68,3.92v.02c0,1.52-.23,2.83-.68,3.93s-1.09,1.95-1.93,2.55c-.84.6-1.85.9-3.02.9ZM36.2,25.5c.57,0,1.04-.2,1.44-.6.4-.4.7-.98.91-1.73.21-.76.31-1.66.31-2.71v-.02c0-1.05-.1-1.96-.31-2.71-.21-.75-.51-1.32-.91-1.72-.39-.4-.87-.6-1.44-.6s-1.04.2-1.44.6c-.39.4-.69.97-.9,1.72-.21.75-.31,1.65-.31,2.71v.02c0,1.05.1,1.96.31,2.71.21.75.51,1.32.9,1.73.4.4.88.6,1.44.6ZM44.49,23.08v-2.55h6.46v2.55h-6.46ZM59.05,27.79c-1.06,0-1.99-.18-2.79-.53-.79-.35-1.42-.84-1.88-1.47s-.73-1.36-.8-2.2v-.12h2.81v.11c.06.35.19.67.41.95.23.28.53.5.92.66.38.16.83.23,1.34.23s.94-.08,1.31-.25c.38-.18.67-.41.87-.71.21-.31.31-.66.31-1.05v-.02c0-.68-.24-1.19-.72-1.55-.48-.36-1.14-.54-1.99-.54h-1.61v-2.1h1.57c.49,0,.92-.08,1.29-.24.36-.16.65-.39.85-.67.2-.29.3-.63.3-1.01v-.02c0-.39-.09-.73-.26-1.01-.17-.28-.42-.49-.75-.64-.33-.15-.72-.22-1.18-.22s-.87.08-1.22.23c-.35.16-.63.38-.84.66-.21.28-.33.61-.37,1v.09h-2.72v-.12c.08-.84.34-1.57.77-2.18.44-.62,1.04-1.1,1.78-1.44.75-.35,1.62-.52,2.61-.52s1.89.16,2.64.48c.75.31,1.32.75,1.73,1.31.41.56.62,1.21.62,1.96v.02c0,.59-.13,1.1-.39,1.54s-.61.81-1.05,1.09c-.44.29-.94.49-1.49.61v.06c1.05.1,1.89.44,2.52,1.02s.95,1.35.95,2.3v.02c0,.85-.23,1.6-.69,2.25-.46.64-1.09,1.14-1.91,1.49s-1.78.53-2.88.53h-.06ZM68.73,23.06v-2.3h3.57c.85,0,1.5-.21,1.97-.64.48-.44.71-1.05.71-1.86v-.02c0-.8-.24-1.42-.71-1.85s-1.13-.64-1.97-.64h-3.57v-2.33h4.3c.99,0,1.86.2,2.6.61.74.4,1.32.96,1.73,1.68.42.72.62,1.57.62,2.53v.02c0,.97-.21,1.82-.62,2.54s-.99,1.28-1.73,1.68c-.74.4-1.61.6-2.6.6h-4.3v-.02ZM67.26,27.5v-14.09h2.95v14.09h-2.95Z"/>
</svg>