<?xml version="1.0" encoding="UTF-8"?>
<svg id="Laag_1" data-name="Laag 1" xmlns="http://www.w3.org/2000/svg" xmlns:xlink="http://www.w3.org/1999/xlink" viewBox="0 0 400 163.29">
  <defs>
    <style>
      .cls-1 {
        clip-path: url(#clippath);
      }

      .cls-2 {
        fill: none;
      }

      .cls-2, .cls-3, .cls-4, .cls-5 {
        stroke-width: 0px;
      }

      .cls-4 {
        fill: #a6c958;
      }

      .cls-5 {
        fill: #aaa5a5;
      }
    </style>
    <clipPath id="clippath">
      <rect class="cls-2" x="47.51" y="12.33" width="304.98" height="138.63"/>
    </clipPath>
  </defs>
  <g class="cls-1">
    <g>
      <path class="cls-4" d="M288.23,22.99h-115.86v14.89h115.86v-14.89Z"/>
      <path class="cls-4" d="M297.71,32.13h-137.67v14.89h137.67v-14.89Z"/>
      <path class="cls-4" d="M307.13,37.05h-156.64v14.89h156.64v-14.89Z"/>
      <path class="cls-4" d="M316.27,47.02h-183.93v14.89h183.93v-14.89Z"/>
      <path class="cls-4" d="M340.92,54.43H121.89v14.89h219.04v-14.89Z"/>
      <path class="cls-4" d="M345.08,61.91H66.83v14.89h278.25v-14.89Z"/>
      <path class="cls-4" d="M344.11,73.75H58.52v14.89h285.59v-14.89Z"/>
      <path class="cls-4" d="M347.3,87.11H54.92v14.89h292.37v-14.89Z"/>
      <path class="cls-4" d="M96.06,100.48h-40.93v14.89h40.93v-14.89Z"/>
      <path class="cls-4" d="M96.06,109.06h-40.93v14.89h40.93v-14.89Z"/>
      <path class="cls-4" d="M348.06,97.57h-40.93v14.89h40.93v-14.89Z"/>
      <path class="cls-4" d="M342.66,110.66h-32.13v14.89h32.13v-14.89Z"/>
      <path class="cls-4" d="M270.98,96.25h-138.64v14.89h138.64v-14.89Z"/>
      <path class="cls-4" d="M266.69,106.99h-130.05v14.89h130.05v-14.89Z"/>
      <path class="cls-3" d="M115.31,140.36c10.14,0,18.35-8.22,18.35-18.35s-8.22-18.35-18.35-18.35-18.35,8.22-18.35,18.35,8.22,18.35,18.35,18.35Z"/>
      <path class="cls-3" d="M290.09,141.68c10.13,0,18.35-8.22,18.35-18.35s-8.22-18.35-18.35-18.35-18.35,8.22-18.35,18.35,8.22,18.35,18.35,18.35Z"/>
      <path class="cls-5" d="M69.46,131.22h25.28v-11.91h-24.72c-7.06,0-10.6-3.95-10.6-11.91v-15.58c0-13.43,9.35-22.02,26.11-24.1l41.76-5.12,37.4-23.27c19.25-12.05,30.95-14.82,64.19-14.82h20.29c23.75,0,43.07,9.83,59.62,32.61l21.12,5.47c7.96,2.01,10.53,6.86,10.53,13.92v32.27c0,6.72-3.39,10.66-9.35,10.66h-20.84v11.91h22.85c11.98,0,19.25-7.48,19.25-19.87v-34.97c0-11.91-4.02-21.53-18.91-26.04l-18.01-5.33c-11.08-13.23-30.47-32.68-66.34-32.68h-20.29c-35.59,0-49.51,3.39-70.64,16.62l-35.04,21.95-39.2,4.85c-23.06,2.77-36.56,16.07-36.56,36.01v16.96c0,14.68,7.62,22.5,21.95,22.5l.14-.14ZM136.71,131.22h132.27v-11.91h-132.27v11.91ZM115.38,150.96c16.2,0,28.95-12.74,28.95-29.01s-12.74-29.01-28.95-29.01-29.02,12.74-29.02,29.01,12.74,29.01,29.02,29.01ZM115.38,138.98c-9.56,0-17.04-7.41-17.04-17.03s7.48-16.96,17.04-16.96,17.04,7.41,17.04,16.96-7.41,17.03-17.04,17.03ZM290.09,150.96c16.27,0,29.02-12.74,29.02-29.01s-12.74-29.01-29.02-29.01-28.95,12.74-28.95,29.01,12.74,29.01,28.95,29.01ZM290.09,138.98c-9.49,0-17.04-7.41-17.04-17.03s7.48-16.96,17.04-16.96,17.04,7.41,17.04,16.96-7.48,17.03-17.04,17.03Z"/>
    </g>
  </g>
</svg>