<?xml version="1.0" encoding="UTF-8"?>
<svg id="Laag_1" data-name="Laag 1" xmlns="http://www.w3.org/2000/svg" xmlns:xlink="http://www.w3.org/1999/xlink" viewBox="0 0 153.02 120.09">
  <defs>
    <style>
      .cls-1 {
        clip-path: url(#clippath);
      }

      .cls-2 {
        fill: none;
      }

      .cls-2, .cls-3, .cls-4, .cls-5, .cls-6 {
        stroke-width: 0px;
      }

      .cls-7 {
        stroke: #000;
      }

      .cls-7, .cls-5 {
        fill: #fff;
      }

      .cls-3 {
        fill: #1c3e92;
      }

      .cls-4 {
        fill: #aaa5a5;
      }

      .cls-6 {
        fill: #e8413a;
      }
    </style>
    <clipPath id="clippath">
      <rect class="cls-2" width="153.02" height="120.09"/>
    </clipPath>
  </defs>
  <g class="cls-1">
    <g>
      <path class="cls-5" d="M122.14,6.71H31.55v11.8h90.59V6.71Z"/>
      <path class="cls-5" d="M128.06,12.59H25.37v11.8h102.69v-11.8Z"/>
      <path class="cls-5" d="M132.89,23.81H21.8v11.8h111.09v-11.8Z"/>
      <path class="cls-5" d="M135.64,35.56H18.16v11.8h117.48v-11.8Z"/>
      <path class="cls-5" d="M145.96,52.15H7.78v11.8h138.18s0-11.8,0-11.8Z"/>
      <path class="cls-5" d="M147.62,60.88H5.19v34.99h142.44v-34.99h0Z"/>
      <path class="cls-5" d="M142.9,43.15H10.38v11.8h132.52v-11.8Z"/>
      <path class="cls-6" d="M25.37,77.36c3.63,0,6.17-2.6,6.17-6.19v-9.93c0-3.64-2.6-6.19-6.17-6.19s-6.23,2.6-6.23,6.19v9.93c0,3.53,2.59,6.19,6.23,6.19ZM128.16,77.36c3.63,0,6.28-2.6,6.28-6.19v-9.93c0-3.64-2.65-6.19-6.28-6.19s-6.17,2.65-6.17,6.19v9.93c0,3.53,2.7,6.19,6.17,6.19Z"/>
      <path class="cls-4" d="M0,88.44c0,8.47,4.77,14.19,13.65,14.19h125.78c8.87,0,13.64-5.72,13.64-14.19v-19.29c0-11.23-1.87-17.57-8.15-24.75l-6.38-7.23-7-20.07c-3.74-10.66-10.74-15.13-19.67-16.17C107.41.41,92.98,0,76.64,0s-30.87.36-35.28.94c-9.03,1.04-15.88,5.56-19.66,16.17l-7,20.07-6.38,7.23C1.94,51.57.12,57.92.12,69.15v19.29h-.12ZM7.42,86.36v-17.21c0-9.1,1.14-13.72,6.64-20.17l7.42-8.63,6.75-19.86c2.75-8.27,7.42-11.23,13.9-12.01,4.15-.52,17.49-1.09,34.35-1.09s30.15.57,34.35,1.09c6.43.78,11.11,3.74,13.91,12.01l6.74,19.86,7.42,8.63c5.45,6.45,6.64,11.07,6.64,20.17v17.21c0,5.3-2.39,8.84-8.04,8.84H15.51c-5.71,0-8.1-3.48-8.1-8.84h0ZM33.57,38.63h85.82c2.86,0,3.89-2.13,2.96-4.84l-3.89-11.49c-1.66-4.78-4.2-6.65-8.51-7.17-4.52-.62-15.77-1.04-33.42-1.04s-29.01.42-33.47,1.04c-4.3.52-6.85,2.39-8.51,7.17l-3.89,11.49c-.93,2.7.1,4.84,2.91,4.84h0ZM62.22,74.55h28.33c2.91,0,4.77-1.87,4.77-4.99v-6.91c0-3.02-1.92-4.84-4.77-4.84h-28.33c-2.91,0-4.67,1.82-4.67,4.84v6.91c0,3.12,1.82,4.99,4.67,4.99ZM11.83,120.1h7.63c4.83,0,8.51-3.69,8.51-8.42v-12.11l-24.65-3.48v15.65c0,4.73,3.74,8.42,8.51,8.42v-.05h0ZM133.62,120.1h7.57c4.83,0,8.51-3.69,8.51-8.42v-15.65l-24.65,3.48v12.11c0,4.78,3.74,8.42,8.57,8.42v.05h0Z"/>
      <rect class="cls-7" x="57.53" y="57.92" width="37.58" height="16.66" rx="3.68" ry="3.68"/>
      <path class="cls-3" d="M66.74,69.09c-.43,0-.81-.06-1.14-.19-.32-.13-.57-.32-.76-.55-.18-.24-.28-.52-.31-.85v-.06h1.09v.04c.02.14.08.26.18.36s.23.18.4.24c.16.06.35.09.56.09s.39-.03.54-.09.27-.14.36-.25c.09-.11.13-.23.13-.37h0c0-.18-.07-.33-.22-.43-.14-.11-.38-.2-.72-.27l-.58-.12c-.56-.11-.97-.3-1.23-.56s-.39-.6-.39-1.02h0c0-.34.09-.63.27-.89.18-.25.42-.45.74-.59.31-.14.67-.21,1.07-.21.43,0,.79.07,1.1.2.3.14.54.32.71.56.17.24.27.51.29.82v.05h-1.07v-.05c-.03-.13-.08-.25-.17-.35s-.21-.18-.35-.23c-.14-.06-.31-.09-.5-.09s-.35.03-.5.08c-.14.06-.24.13-.33.23-.08.1-.12.22-.12.35h0c0,.18.07.32.22.43.14.11.38.2.7.26l.57.12c.39.08.7.18.94.32.24.13.43.3.54.5s.17.45.17.73h0c0,.36-.09.67-.27.93-.17.26-.43.47-.76.61s-.72.21-1.17.21v.04ZM71.94,69.09c-.45,0-.84-.12-1.17-.35-.33-.23-.57-.56-.75-.99-.17-.43-.26-.93-.26-1.52h0c0-.6.09-1.1.26-1.52.18-.43.43-.76.75-.99.33-.23.72-.35,1.17-.35s.84.12,1.17.35c.33.23.57.56.75.99.18.42.27.93.27,1.52h0c0,.6-.09,1.1-.27,1.53-.17.43-.42.76-.75.99-.33.23-.72.35-1.17.35h0ZM71.94,68.18c.22,0,.41-.08.56-.23.15-.16.27-.38.35-.67s.12-.64.12-1.05h0c0-.42-.04-.77-.12-1.06s-.2-.51-.35-.67c-.15-.15-.34-.23-.56-.23s-.4.08-.55.23-.27.38-.35.67-.12.64-.12,1.05h0c0,.42.04.77.12,1.06s.2.51.35.67c.15.15.34.23.55.23ZM75.15,67.25v-.99h2.5v.99h-2.5ZM80.79,69.07c-.41,0-.77-.07-1.08-.2-.31-.14-.55-.33-.73-.57s-.28-.53-.31-.85v-.05h1.09v.04c.02.14.07.26.16.37s.21.19.35.26c.15.06.32.09.52.09s.36-.03.51-.1.26-.16.34-.28.12-.25.12-.41h0c0-.27-.09-.47-.28-.61-.18-.14-.44-.21-.77-.21h-.62v-.81h.61c.19,0,.36-.03.5-.09s.25-.15.33-.26.12-.24.12-.39h0c0-.16-.03-.29-.1-.4s-.16-.19-.29-.25c-.12-.06-.28-.09-.46-.09s-.34.03-.47.09c-.14.06-.24.15-.33.26-.08.11-.13.24-.14.39v.03h-1.05v-.05c.03-.33.13-.61.3-.84.17-.24.4-.42.69-.56.29-.13.62-.2,1.01-.2s.73.06,1.02.19c.29.12.51.29.67.51s.24.47.24.76h0c0,.23-.05.43-.15.61-.1.17-.24.31-.41.42s-.36.19-.58.23v.02c.41.04.73.17.98.39s.37.52.37.89h0c0,.34-.09.63-.27.88-.18.25-.43.44-.74.58-.32.14-.69.2-1.12.2h-.03ZM84.54,67.24v-.89h1.38c.33,0,.58-.08.77-.25.18-.17.28-.41.28-.72h0c0-.32-.09-.56-.28-.72-.18-.17-.44-.25-.77-.25h-1.38v-.9h1.67c.38,0,.72.08,1,.23.29.15.51.37.67.65s.24.61.24.98h0c0,.38-.08.71-.24.99s-.38.5-.67.65-.62.23-1,.23h-1.67ZM83.97,68.96v-5.46h1.14v5.46h-1.14Z"/>
    </g>
  </g>
</svg>