<?xml version="1.0" encoding="utf-8"?>
<!-- Generator: Adobe Illustrator 28.1.0, SVG Export Plug-In . SVG Version: 6.00 Build 0)  -->
<svg version="1.1" id="Laag_1" xmlns="http://www.w3.org/2000/svg" xmlns:xlink="http://www.w3.org/1999/xlink" x="0px" y="0px"
	 viewBox="0 0 29.5 23.1" style="enable-background:new 0 0 29.5 23.1;" xml:space="preserve">
<style type="text/css">
	.st0{fill:#274C77;}
	.st1{fill:#FFCC00;}
	.st2{fill:#5E5E5E;}
</style>
<g>
	<g>
		<rect x="5.9" y="1.2" class="st0" width="17.7" height="2.3"/>
		<rect x="4.7" y="2.8" class="st0" width="20" height="2.3"/>
		<rect x="4.1" y="4.4" class="st0" width="21.5" height="2.3"/>
		<rect x="3.7" y="5.9" class="st0" width="22" height="2.3"/>
		<rect x="3" y="7.6" class="st0" width="23.5" height="2.3"/>
		<rect x="1.7" y="9.7" class="st0" width="26.1" height="2.1"/>
		<rect x="1.2" y="11.7" class="st0" width="27.2" height="6.6"/>
	</g>
	<path class="st1" d="M5.7,16.3c1.1,0,1.9-0.8,1.9-1.9c0-1.1-0.8-1.9-1.9-1.9c-1.1,0-1.9,0.8-1.9,1.9C3.7,15.5,4.6,16.3,5.7,16.3z
		 M23.8,16.3c1.1,0,1.9-0.8,1.9-1.9c0-1.1-0.8-1.9-1.9-1.9c-1.1,0-1.9,0.8-1.9,1.9C21.9,15.5,22.7,16.3,23.8,16.3z"/>
	<path class="st2" d="M5.6,7.8C5.5,8.2,5.7,8.4,6.1,8.4c2.1-0.1,4.4-0.3,8.6-0.3c4.2,0,6.5,0.1,8.6,0.3c0.5,0,0.6-0.2,0.5-0.6
		C23.6,6.3,23,4.7,22.6,4c-0.3-0.6-0.8-0.9-1.5-1c-0.9-0.1-3.1-0.2-6.4-0.2c-3.3,0-5.4,0.1-6.4,0.2C7.7,3.1,7.2,3.4,6.9,4
		C6.5,4.7,5.9,6.3,5.6,7.8z M11.5,15.9H18c0.8,0,1.4-0.6,1.4-1.4s-0.6-1.4-1.4-1.4h-6.5c-0.8,0-1.4,0.6-1.4,1.4S10.7,15.9,11.5,15.9
		z M14.8,19.7c4.2,0,9.8-0.2,12.2-0.5c1.6-0.2,2.6-1.1,2.6-2.6v-2.2c0-2.2-0.5-3.3-1.6-4.8l-1.1-1.4c-0.5-2.3-1.3-4.7-1.7-5.6
		c-0.7-1.4-2-2.2-3.6-2.4C20.7,0.1,17.9,0,14.8,0c-3.2,0-6,0.1-6.8,0.2c-1.6,0.2-2.9,1-3.6,2.4C4,3.6,3.1,6,2.7,8.2L1.6,9.6
		C0.5,11.1,0,12.2,0,14.4v2.2c0,1.6,0.9,2.5,2.6,2.6C4.9,19.5,10.6,19.7,14.8,19.7z M14.8,18.3c-4.2,0-9.7-0.2-11.8-0.5
		c-1.1-0.1-1.5-0.7-1.5-1.6v-1.8c0-1.7,0.3-2.6,1.3-3.9L4,8.8c0.4-1.9,1.2-4.4,1.7-5.5c0.4-0.9,1.3-1.5,2.4-1.6
		c0.8-0.1,3.4-0.2,6.6-0.2c3.2,0,5.9,0.1,6.6,0.2c1.2,0.2,2,0.7,2.5,1.6c0.5,1.1,1.3,3.6,1.7,5.5l1.3,1.7c1,1.3,1.3,2.1,1.3,3.9v1.8
		c0,1-0.4,1.5-1.5,1.6C24.5,18.1,19,18.3,14.8,18.3z M2.3,23.1h1.5c0.9,0,1.6-0.7,1.6-1.6v-2.8L0.6,18v3.5
		C0.6,22.4,1.4,23.1,2.3,23.1z M25.8,23.1h1.5c0.9,0,1.6-0.7,1.6-1.6V18l-4.8,0.7v2.8C24.1,22.4,24.8,23.1,25.8,23.1z"/>
</g>
</svg>
