<?xml version="1.0" encoding="UTF-8"?>
<!--Generator: Apple Native CoreSVG 232.5-->
<!DOCTYPE svg
PUBLIC "-//W3C//DTD SVG 1.1//EN"
       "http://www.w3.org/Graphics/SVG/1.1/DTD/svg11.dtd">
<svg version="1.1" xmlns="http://www.w3.org/2000/svg" xmlns:xlink="http://www.w3.org/1999/xlink" width="29.4955" height="23.1457">
 <g>
  <rect height="23.1457" opacity="0" width="29.4955" x="0" y="0"/>
  <path d="M4.89501 14.927C5.59011 14.927 6.08718 14.43 6.08718 13.7349L6.08718 11.8228C6.08718 11.1227 5.59011 10.6307 4.89501 10.6307C4.19435 10.6307 3.69177 11.1333 3.69177 11.8228L3.69177 13.7349C3.69177 14.4194 4.19435 14.927 4.89501 14.927ZM24.6966 14.927C25.3972 14.927 25.9104 14.43 25.9104 13.7349L25.9104 11.8228C25.9104 11.1227 25.3972 10.6307 24.6966 10.6307C24.0231 10.6307 23.5044 11.1388 23.5044 11.8228L23.5044 13.7349C23.5044 14.4139 24.0231 14.927 24.6966 14.927Z" fill="#ff3b30"/>
  <path d="M0.00119346 17.0576C0.00119346 18.6921 0.916447 19.7918 2.62936 19.7918L26.8673 19.7918C28.5751 19.7918 29.4955 18.6921 29.4955 17.0576L29.4955 13.3508C29.4955 11.1935 29.138 9.96917 27.9207 8.59402L26.6893 7.20426L25.3367 3.34052C24.6129 1.29283 23.2705 0.429835 21.545 0.226274C20.687 0.124229 17.9024 0.0493531 14.7511 0.0493531C11.5997 0.0493531 8.79905 0.124229 7.95163 0.226274C6.21558 0.429835 4.88921 1.29283 4.16542 3.34052L2.81282 7.20426L1.58144 8.59402C0.348052 9.96917 0.00119346 11.1935 0.00119346 13.3508ZM1.43549 16.6622L1.43549 13.3508C1.43549 11.6022 1.65667 10.7115 2.71319 9.47048L4.14613 7.80982L5.45043 3.99386C5.98275 2.40851 6.88499 1.83249 8.12701 1.6872C8.93071 1.59072 11.5007 1.47862 14.7511 1.47862C17.996 1.47862 20.5659 1.59072 21.3696 1.6872C22.6066 1.83249 23.5139 2.40851 24.0462 3.99386L25.3505 7.80982L26.7784 9.47048C27.8294 10.7115 28.0611 11.6022 28.0611 13.3508L28.0611 16.6622C28.0611 17.683 27.6027 18.3575 26.5074 18.3575L2.99471 18.3575C1.89945 18.3575 1.43549 17.683 1.43549 16.6622ZM6.47267 7.48152L23.0134 7.48152C23.5642 7.48152 23.7628 7.06887 23.5859 6.54916L22.8349 4.34064C22.5162 3.41722 22.0251 3.0593 21.1927 2.95674C20.3271 2.83862 18.1514 2.75873 14.7511 2.75873C11.3402 2.75873 9.15894 2.83862 8.30395 2.95674C7.4715 3.0593 6.98591 3.41722 6.6617 4.34064L5.91076 6.54916C5.73384 7.06887 5.93238 7.48152 6.47267 7.48152ZM11.9911 14.3872L17.4502 14.3872C18.0061 14.3872 18.3745 14.0294 18.3745 13.4308L18.3745 12.1053C18.3745 11.5228 18.0061 11.1705 17.4502 11.1705L11.9911 11.1705C11.4352 11.1705 11.0884 11.5228 11.0884 12.1053L11.0884 13.4308C11.0884 14.0294 11.4352 14.3872 11.9911 14.3872ZM2.28359 23.1457L3.75123 23.1457C4.67755 23.1457 5.39529 22.4385 5.39529 21.5228L5.39529 19.1888L0.644571 18.5153L0.644571 21.5228C0.644571 22.433 1.36228 23.1457 2.28359 23.1457ZM25.7509 23.1457L27.208 23.1457C28.1398 23.1457 28.8521 22.4385 28.8521 21.5228L28.8521 18.5153L24.1013 19.1888L24.1013 21.5228C24.1013 22.4385 24.8191 23.1457 25.7509 23.1457Z" fill="#5e5e5e"/>
 </g>
</svg>
