<?xml version="1.0" encoding="UTF-8"?>
<!--Generator: Apple Native CoreSVG 232.5-->
<!DOCTYPE svg
PUBLIC "-//W3C//DTD SVG 1.1//EN"
       "http://www.w3.org/Graphics/SVG/1.1/DTD/svg11.dtd">
<svg version="1.1" xmlns="http://www.w3.org/2000/svg" xmlns:xlink="http://www.w3.org/1999/xlink" width="44.0368" height="20.0392">
 <g>
  <rect height="20.0392" opacity="0" width="44.0368" x="0" y="0"/>
  <path d="M3.17402 17.1673L6.8289 17.1673L6.8289 15.443L3.25843 15.443C2.24199 15.443 1.73131 14.874 1.73131 13.7194L1.73131 11.4676C1.73131 9.52897 3.07734 8.28345 5.50099 7.98336L11.527 7.23848L16.9266 3.87949C19.7091 2.14242 21.399 1.7348 26.2015 1.7348L29.1273 1.7348C32.5533 1.7348 35.3473 3.15017 37.7326 6.44085L40.7871 7.23347C41.9342 7.52799 42.3072 8.22566 42.3072 9.24754L42.3072 13.9065C42.3072 14.8796 41.8182 15.443 40.9621 15.443L37.9559 15.443L37.9559 17.1673L41.252 17.1673C42.9845 17.1673 44.0368 16.0882 44.0368 14.3019L44.0368 9.24754C44.0368 7.52358 43.4608 6.14197 41.3061 5.4871L38.7107 4.71711C37.1104 2.80516 34.3154 0 29.1273 0L26.2015 0C21.0637 0 19.0513 0.487025 16.0034 2.39897L10.9435 5.56701L5.28339 6.26969C1.95213 6.67078 0.00153555 8.59021 0.00153555 11.4676L0.00153555 13.9144C0.00153555 16.0364 1.10573 17.1673 3.17402 17.1673ZM12.8801 17.1673L31.9835 17.1673L31.9835 15.443L12.8801 15.443ZM9.79898 20.0231C12.1432 20.0231 13.9787 18.1876 13.9787 15.8329C13.9787 13.4837 12.1432 11.6426 9.79898 11.6426C7.44979 11.6426 5.60873 13.4837 5.60873 15.8329C5.60873 18.1876 7.44979 20.0231 9.79898 20.0231ZM9.79898 18.2883C8.41519 18.2883 7.33849 17.2167 7.33849 15.8329C7.33849 14.4491 8.41519 13.3829 9.79898 13.3829C11.1828 13.3829 12.2545 14.4491 12.2545 15.8329C12.2545 17.2167 11.1828 18.2883 9.79898 18.2883ZM35.0326 20.0231C37.3817 20.0231 39.223 18.1876 39.223 15.8329C39.223 13.4837 37.3817 11.6426 35.0326 11.6426C32.6883 11.6426 30.8528 13.4837 30.8528 15.8329C30.8528 18.1876 32.6883 20.0231 35.0326 20.0231ZM35.0326 18.2883C33.6594 18.2883 32.5772 17.2167 32.5772 15.8329C32.5772 14.4491 33.6594 13.3829 35.0326 13.3829C36.4108 13.3829 37.493 14.4491 37.493 15.8329C37.493 17.2167 36.4108 18.2883 35.0326 18.2883Z" fill="#5e5e5e"/>
 </g>
</svg>
