<?xml version="1.0" encoding="UTF-8"?>
<!--Generator: Apple Native CoreSVG 232.5-->
<!DOCTYPE svg
PUBLIC "-//W3C//DTD SVG 1.1//EN"
       "http://www.w3.org/Graphics/SVG/1.1/DTD/svg11.dtd">
<svg version="1.1" xmlns="http://www.w3.org/2000/svg" xmlns:xlink="http://www.w3.org/1999/xlink" width="29.4955" height="23.1457">
 <g>
  <rect height="23.1457" opacity="0" width="29.4955" x="0" y="0"/>
  <path d="M5.66362 16.3176C6.75929 16.3176 7.58758 15.4893 7.58758 14.3881C7.58758 13.2924 6.75929 12.4641 5.66362 12.4641C4.56242 12.4641 3.73967 13.2924 3.73967 14.3881C3.73967 15.4893 4.56242 16.3176 5.66362 16.3176ZM23.8385 16.3176C24.9342 16.3176 25.7625 15.4893 25.7625 14.3881C25.7625 13.2924 24.9342 12.4641 23.8385 12.4641C22.7373 12.4641 21.9146 13.2924 21.9146 14.3881C21.9146 15.4893 22.7373 16.3176 23.8385 16.3176Z" fill="#ffcc00"/>
  <path d="M5.60618 7.79615C5.51019 8.20173 5.67504 8.40683 6.14649 8.37465C8.21938 8.23492 10.5882 8.12285 14.7511 8.12285C18.9034 8.12285 21.2828 8.23492 23.3501 8.37465C23.8216 8.40683 23.9919 8.20173 23.8959 7.79615C23.5622 6.34195 22.9942 4.65619 22.5921 3.96459C22.2533 3.3624 21.8321 3.06431 21.1032 2.96731C20.1583 2.83862 18.0432 2.75873 14.7511 2.75873C11.4429 2.75873 9.33834 2.83862 8.39891 2.96731C7.6645 3.06431 7.24327 3.3624 6.89946 3.96459C6.50289 4.65619 5.9294 6.34195 5.60618 7.79615ZM11.4735 15.8985L18.0231 15.8985C18.8408 15.8985 19.4017 15.3325 19.4017 14.5148C19.4017 13.6971 18.8408 13.1362 18.0231 13.1362L11.4735 13.1362C10.6613 13.1362 10.1004 13.6971 10.1004 14.5148C10.1004 15.3325 10.6613 15.8985 11.4735 15.8985ZM14.7511 19.734C18.9293 19.734 24.5477 19.5249 26.9331 19.2514C28.5641 19.0695 29.4955 18.1884 29.4955 16.6147L29.4955 14.3952C29.4955 12.2323 29.0325 11.0819 27.9207 9.63285L26.8476 8.23253C26.3867 5.9647 25.5503 3.57872 25.1161 2.65139C24.4461 1.24152 23.1438 0.434849 21.545 0.226274C20.687 0.113685 17.9024 0.0493531 14.7511 0.0493531C11.5997 0.0493531 8.79905 0.124229 7.95163 0.226274C6.35836 0.424304 5.05608 1.24152 4.38608 2.65139C3.95182 3.57872 3.11545 5.9647 2.65455 8.23253L1.58144 9.63285C0.464129 11.0819 0.00119346 12.2323 0.00119346 14.3952L0.00119346 16.6147C0.00119346 18.1884 0.938064 19.0695 2.56348 19.2514C4.94894 19.5249 10.5673 19.734 14.7511 19.734ZM14.7511 18.3047C10.5306 18.3047 5.01831 18.1117 2.9394 17.8538C1.83359 17.709 1.43549 17.1848 1.43549 16.2138L1.43549 14.3952C1.43549 12.6465 1.71999 11.8136 2.71319 10.5093L3.98782 8.84865C4.34321 6.92906 5.16902 4.40039 5.68217 3.29918C6.11245 2.39644 6.93979 1.82696 8.12701 1.6872C8.93071 1.59072 11.5007 1.47862 14.7511 1.47862C17.996 1.47862 20.6081 1.59072 21.3485 1.6872C22.5729 1.8375 23.3792 2.40699 23.8144 3.29918C24.3331 4.40039 25.1484 6.92906 25.5088 8.84865L26.7784 10.5093C27.7766 11.8136 28.0611 12.6465 28.0611 14.3952L28.0611 16.2138C28.0611 17.1848 27.6525 17.7251 26.5628 17.8538C24.4783 18.1006 18.9555 18.3047 14.7511 18.3047ZM2.28359 23.1457L3.75123 23.1457C4.67755 23.1457 5.39529 22.4385 5.39529 21.5228L5.39529 18.6801L0.644571 18.0116L0.644571 21.5228C0.644571 22.433 1.36228 23.1457 2.28359 23.1457ZM25.7509 23.1457L27.208 23.1457C28.1398 23.1457 28.8521 22.4385 28.8521 21.5228L28.8521 18.0116L24.1013 18.6801L24.1013 21.5228C24.1013 22.4385 24.8191 23.1457 25.7509 23.1457Z" fill="#aaa6a6"/>
 </g>
</svg>
