<?xml version="1.0" encoding="UTF-8"?>
<svg id="Laag_1" data-name="Laag 1" xmlns="http://www.w3.org/2000/svg" xmlns:xlink="http://www.w3.org/1999/xlink" viewBox="0 0 350 350">
  <defs>
    <style>
      .cls-1 {
        clip-path: url(#clippath);
      }

      .cls-2 {
        fill: none;
      }

      .cls-2, .cls-3, .cls-4, .cls-5 {
        stroke-width: 0px;
      }

      .cls-3 {
        fill: #aaa5a5;
      }

      .cls-4 {
        fill: #c1e3e5;
      }

      .cls-5 {
        fill: #ed692c;
      }
    </style>
    <clipPath id="clippath">
      <rect class="cls-2" x="91.49" y="109.63" width="167.02" height="130.74"/>
    </clipPath>
  </defs>
  <g class="cls-1">
    <g>
      <path class="cls-5" d="M224.47,115.85h-98.88v12.85h98.88v-12.85Z"/>
      <path class="cls-5" d="M230.93,122.25h-112.08v12.85h112.08v-12.85Z"/>
      <path class="cls-5" d="M236.14,134.47h-121.25v12.85h121.25v-12.85Z"/>
      <path class="cls-5" d="M239.2,147.27H110.97v12.85h128.22v-12.85Z"/>
      <path class="cls-5" d="M250.41,165.32H99.59v12.85h150.82v-12.85Z"/>
      <path class="cls-5" d="M252.28,174.83H96.82v38.09h155.46v-38.09Z"/>
      <path class="cls-5" d="M242.76,155.53H108.6v12.85h134.17v-12.85Z"/>
      <path class="cls-4" d="M123.55,201.71c6.23,0,10.87-4.7,10.87-10.92s-4.7-10.86-10.87-10.86-10.87,4.69-10.87,10.86,4.64,10.92,10.87,10.92ZM226.51,201.71c6.23,0,10.87-4.7,10.87-10.92s-4.7-10.86-10.87-10.86-10.87,4.69-10.87,10.86,4.64,10.92,10.87,10.92Z"/>
      <path class="cls-3" d="M123.21,153.49c-.57,2.32.4,3.45,3.06,3.29,11.72-.79,25.15-1.42,48.71-1.42s36.98.62,48.71,1.42c2.66.17,3.62-.96,3.12-3.29-1.87-8.2-5.1-17.77-7.36-21.67-1.93-3.4-4.3-5.09-8.44-5.66-5.32-.74-17.33-1.19-35.96-1.19s-30.64.45-35.96,1.19c-4.13.57-6.57,2.26-8.5,5.66-2.27,3.91-5.49,13.47-7.31,21.67h-.06ZM156.45,199.34h37.1c4.64,0,7.82-3.23,7.82-7.81s-3.17-7.81-7.82-7.81h-37.1c-4.59,0-7.76,3.17-7.76,7.81s3.17,7.81,7.76,7.81ZM175.03,221.01c23.67,0,55.5-1.19,68.98-2.72,9.23-1.02,14.5-6,14.5-14.94v-12.56c0-12.23-2.61-18.73-8.89-26.94l-6.06-7.92c-2.61-12.85-7.36-26.32-9.8-31.58-3.79-7.98-11.16-12.56-20.22-13.75-4.87-.62-20.61-1.02-38.45-1.02s-33.7.4-38.51,1.02c-9,1.13-16.42,5.77-20.22,13.75-2.44,5.26-7.19,18.73-9.8,31.58l-6.06,7.92c-6.34,8.21-8.95,14.71-8.95,26.94v12.56c0,8.89,5.32,13.87,14.5,14.94,13.54,1.53,45.31,2.72,69.04,2.72h-.06ZM175.03,212.98c-23.9,0-55.11-1.08-66.89-2.55-6.29-.79-8.5-3.79-8.5-9.28v-10.3c0-9.91,1.59-14.61,7.25-22.02l7.19-9.39c2.04-10.87,6.68-25.19,9.57-31.42,2.44-5.09,7.14-8.32,13.82-9.11,4.53-.57,19.09-1.19,37.49-1.19s33.19.62,37.38,1.19c6.91.85,11.5,4.07,13.99,9.11,2.95,6.23,7.53,20.55,9.57,31.42l7.19,9.39c5.66,7.36,7.25,12.11,7.25,22.02v10.3c0,5.49-2.32,8.54-8.5,9.28-11.78,1.41-43.1,2.55-66.89,2.55h.06ZM104.4,240.37h8.33c5.27,0,9.29-4.02,9.29-9.17v-16.07l-26.9-3.79v19.86c0,5.15,4.08,9.17,9.29,9.17ZM237.33,240.37h8.27c5.27,0,9.29-4.02,9.29-9.17v-19.86l-26.9,3.79v16.07c0,5.21,4.08,9.17,9.34,9.17Z"/>
    </g>
  </g>
</svg>