<?xml version="1.0" encoding="UTF-8"?>
<svg id="Laag_1" data-name="Laag 1" xmlns="http://www.w3.org/2000/svg" xmlns:xlink="http://www.w3.org/1999/xlink" viewBox="0 0 250 250">
  <defs>
    <style>
      .cls-1 {
        clip-path: url(#clippath);
      }

      .cls-2 {
        fill: none;
      }

      .cls-2, .cls-3, .cls-4, .cls-5, .cls-6, .cls-7 {
        stroke-width: 0px;
      }

      .cls-3 {
        fill: #d51116;
      }

      .cls-4 {
        fill: #aaa5a5;
      }

      .cls-5 {
        fill: #fff;
      }

      .cls-6 {
        fill: #e8413a;
      }

      .cls-7 {
        fill: #00b4d8;
      }
    </style>
    <clipPath id="clippath">
      <rect class="cls-2" x="48.49" y="64.95" width="153.02" height="120.09"/>
    </clipPath>
  </defs>
  <g class="cls-1">
    <g>
      <path class="cls-7" d="M170.64,71.66h-90.6v11.8h90.6v-11.8Z"/>
      <path class="cls-7" d="M176.55,77.54h-102.69v11.8h102.69v-11.8Z"/>
      <path class="cls-7" d="M181.38,88.76h-111.09v11.8h111.09v-11.8Z"/>
      <path class="cls-7" d="M184.13,100.51h-117.48v11.8h117.48v-11.8Z"/>
      <path class="cls-7" d="M194.45,117.1H56.27v11.8h138.18v-11.8Z"/>
      <path class="cls-7" d="M196.11,125.83H53.68v34.99h142.43v-34.99Z"/>
      <path class="cls-7" d="M191.39,108.1H58.87v11.8h132.52v-11.8Z"/>
      <path class="cls-6" d="M73.86,142.31c3.63,0,6.17-2.6,6.17-6.19v-9.93c0-3.64-2.59-6.19-6.17-6.19s-6.23,2.6-6.23,6.19v9.93c0,3.53,2.59,6.19,6.23,6.19ZM176.65,142.31c3.63,0,6.28-2.6,6.28-6.19v-9.93c0-3.64-2.65-6.19-6.28-6.19s-6.17,2.65-6.17,6.19v9.93c0,3.53,2.7,6.19,6.17,6.19Z"/>
      <path class="cls-4" d="M48.49,153.39c0,8.47,4.77,14.19,13.65,14.19h125.78c8.87,0,13.65-5.72,13.65-14.19v-19.29c0-11.23-1.87-17.57-8.15-24.75l-6.38-7.23-7.01-20.07c-3.74-10.66-10.74-15.13-19.67-16.17-4.46-.52-18.89-.94-35.23-.94s-30.87.36-35.28.94c-9.03,1.04-15.88,5.56-19.67,16.17l-7,20.07-6.38,7.23c-6.38,7.17-8.2,13.52-8.2,24.75v19.29h-.1ZM55.91,151.31v-17.21c0-9.1,1.14-13.72,6.64-20.17l7.42-8.63,6.75-19.86c2.75-8.27,7.42-11.23,13.91-12.01,4.15-.52,17.49-1.09,34.35-1.09s30.15.57,34.35,1.09c6.43.78,11.1,3.74,13.91,12.01l6.75,19.86,7.42,8.63c5.45,6.45,6.64,11.07,6.64,20.17v17.21c0,5.3-2.39,8.84-8.04,8.84h-121.99c-5.71,0-8.09-3.48-8.09-8.84ZM82.06,103.58h85.82c2.85,0,3.89-2.13,2.96-4.84l-3.89-11.49c-1.66-4.78-4.2-6.65-8.51-7.17-4.51-.62-15.77-1.04-33.42-1.04s-29.01.42-33.47,1.04c-4.31.52-6.85,2.39-8.51,7.17l-3.89,11.49c-.93,2.7.1,4.84,2.91,4.84ZM110.7,139.5h28.33c2.91,0,4.77-1.87,4.77-4.99v-6.91c0-3.02-1.92-4.84-4.77-4.84h-28.33c-2.91,0-4.67,1.82-4.67,4.84v6.91c0,3.12,1.82,4.99,4.67,4.99ZM60.32,185.05h7.63c4.83,0,8.51-3.69,8.51-8.42v-12.11l-24.65-3.48v15.65c0,4.73,3.74,8.42,8.51,8.42v-.05ZM182.1,185.05h7.58c4.83,0,8.51-3.69,8.51-8.42v-15.65l-24.65,3.48v12.11c0,4.78,3.74,8.42,8.56,8.42v.05Z"/>
      <path class="cls-5" d="M139.92,122.56h-30.04c-2.12,0-3.84,1.72-3.84,3.85v9.25c0,2.12,1.72,3.85,3.84,3.85h30.04c2.12,0,3.84-1.72,3.84-3.85v-9.25c0-2.12-1.72-3.85-3.84-3.85Z"/>
      <path class="cls-3" d="M115.37,133.84c-.41,0-.83-.05-1.14-.21-.31-.16-.57-.31-.73-.57-.16-.26-.26-.52-.31-.83l1.09-.05s.05.31.16.42c.1.1.21.21.42.26.16.05.36.1.57.1s.36,0,.52-.1c.16-.05.26-.16.36-.26.1-.1.1-.21.1-.36,0,0-.05-.31-.21-.42-.16-.1-.36-.21-.73-.26l-.57-.1c-.57-.1-.99-.31-1.25-.57-.26-.26-.36-.62-.36-.99,0-.31.1-.62.26-.88.16-.26.42-.47.73-.57.31-.16.67-.21,1.09-.21s.78.05,1.09.21c.31.16.52.31.73.57.16.26.26.52.31.83h-1.09s-.05-.31-.16-.42c-.1-.1-.21-.16-.36-.21-.16-.05-.31-.1-.52-.1s-.36,0-.47.1c-.16.05-.26.16-.31.21-.05.1-.1.21-.1.36,0,0,.05.31.21.42.16.1.36.21.67.26l.57.1c.36.05.67.21.93.31.26.16.41.31.52.52.1.21.16.47.16.73,0,.36-.1.68-.26.94-.16.26-.41.47-.78.62-.31.16-.73.21-1.14.21v-.05ZM120.51,133.84c-.47,0-.83-.1-1.14-.36-.31-.21-.57-.57-.73-.99-.16-.42-.26-.94-.26-1.51s.1-1.09.26-1.51c.16-.42.41-.73.73-.99.31-.21.73-.36,1.14-.36s.83.1,1.14.36c.31.21.57.57.73.99.16.42.26.94.26,1.51s-.1,1.09-.26,1.51c-.16.42-.42.73-.73.99-.31.21-.73.36-1.14.36ZM120.51,132.95s.41-.05.57-.21c.16-.16.26-.36.36-.68.1-.31.1-.62.1-1.04s0-.78-.1-1.04c-.1-.31-.21-.52-.36-.68-.16-.16-.31-.21-.57-.21s-.42.05-.57.21c-.16.16-.26.36-.36.68-.1.31-.1.62-.1,1.04s0,.78.1,1.04c.1.31.21.52.36.68.16.16.31.21.57.21ZM123.73,132.02v-.99h2.49v.99h-2.49ZM129.33,133.84c-.41,0-.78-.05-1.09-.21-.31-.16-.57-.31-.73-.57-.16-.26-.26-.52-.31-.83h1.09s.05.31.16.42c.1.1.21.21.36.26.16.05.31.1.52.1s.36,0,.52-.1c.16-.05.26-.16.31-.26.1-.1.1-.26.1-.42,0-.26-.1-.47-.26-.62-.21-.16-.42-.21-.78-.21h-.62v-.83h.62s.36,0,.52-.1c.16-.05.26-.16.31-.26.05-.1.1-.26.1-.36,0,0,0-.31-.1-.42-.05-.1-.16-.21-.31-.26-.1-.05-.26-.1-.47-.1s-.31,0-.47.1c-.16.05-.26.16-.31.26-.1.1-.1.26-.16.36h-1.04c0-.36.1-.62.31-.88.16-.26.42-.42.67-.57.31-.16.62-.21.99-.21s.73.05,1.04.21c.31.1.52.31.67.52.16.21.26.47.26.78,0,0,0,.42-.16.62-.1.16-.26.31-.41.42-.16.1-.36.21-.57.21.42.05.73.21.99.42.26.21.36.52.36.88,0,.31-.1.62-.26.88-.16.26-.41.42-.73.57-.31.16-.67.21-1.09.21h-.05ZM133.02,132.02v-.88h1.35c.31,0,.57-.1.78-.26.21-.16.26-.42.26-.73s-.1-.57-.26-.73c-.16-.16-.42-.26-.78-.26h-1.35v-.88h1.66c.36,0,.73.05.99.21.31.16.52.36.67.62.16.26.26.62.26.99s-.1.73-.26.99c-.16.26-.36.52-.67.62-.31.16-.62.21-.99.21h-1.66v.1ZM132.45,133.73v-5.41h1.14v5.41h-1.14Z"/>
    </g>
  </g>
</svg>