<?xml version="1.0" encoding="UTF-8"?>
<svg id="Laag_1" data-name="Laag 1" xmlns="http://www.w3.org/2000/svg" xmlns:xlink="http://www.w3.org/1999/xlink" viewBox="0 0 167.02 130.8">
  <defs>
    <style>
      .cls-1 {
        clip-path: url(#clippath);
      }

      .cls-2 {
        fill: none;
      }

      .cls-2, .cls-3, .cls-4, .cls-5 {
        stroke-width: 0px;
      }

      .cls-3 {
        fill: #aaa5a5;
      }

      .cls-4 {
        fill: #ffcc03;
      }

      .cls-5 {
        fill: #00b4d8;
      }
    </style>
    <clipPath id="clippath">
      <rect class="cls-2" y=".05" width="167.02" height="130.74"/>
    </clipPath>
  </defs>
  <g class="cls-1">
    <g>
      <path class="cls-5" d="M132.98,6.27H34.1v12.85h98.88V6.27Z"/>
      <path class="cls-5" d="M139.44,12.67H27.36v12.85h112.08v-12.85Z"/>
      <path class="cls-5" d="M144.65,24.9H23.4v12.85h121.25v-12.85Z"/>
      <path class="cls-5" d="M147.71,37.69H19.48v12.85h128.22v-12.85h0Z"/>
      <path class="cls-5" d="M158.92,55.74H8.1v12.85h150.82v-12.85Z"/>
      <path class="cls-5" d="M160.79,65.25H5.33v38.09h155.46v-38.09Z"/>
      <path class="cls-5" d="M151.27,45.95H17.11v12.85h134.17v-12.85h0Z"/>
      <path class="cls-4" d="M32.06,92.13c6.23,0,10.87-4.7,10.87-10.92s-4.7-10.87-10.87-10.87-10.87,4.7-10.87,10.87,4.64,10.92,10.87,10.92ZM135.02,92.13c6.23,0,10.87-4.7,10.87-10.92s-4.7-10.87-10.87-10.87-10.87,4.7-10.87,10.87,4.64,10.92,10.87,10.92Z"/>
      <path class="cls-3" d="M31.72,43.91c-.57,2.32.4,3.45,3.06,3.28,11.72-.79,25.15-1.41,48.71-1.41s36.98.62,48.71,1.41c2.66.17,3.62-.96,3.12-3.28-1.87-8.21-5.1-17.77-7.36-21.68-1.93-3.4-4.3-5.09-8.44-5.66-5.32-.74-17.33-1.19-35.96-1.19s-30.64.45-35.96,1.19c-4.13.57-6.57,2.26-8.5,5.66-2.27,3.91-5.49,13.47-7.31,21.68h-.07ZM64.96,89.76h37.1c4.64,0,7.82-3.23,7.82-7.81s-3.17-7.81-7.82-7.81h-37.1c-4.59,0-7.76,3.17-7.76,7.81s3.17,7.81,7.76,7.81h0ZM83.54,111.44c23.67,0,55.5-1.19,68.98-2.72,9.23-1.02,14.5-6,14.5-14.94v-12.57c0-12.23-2.61-18.73-8.89-26.94l-6.06-7.92c-2.61-12.85-7.36-26.32-9.8-31.58-3.79-7.98-11.16-12.57-20.22-13.75-4.87-.62-20.61-1.02-38.45-1.02s-33.7.4-38.51,1.02c-9,1.13-16.42,5.77-20.22,13.75-2.44,5.26-7.19,18.73-9.8,31.58l-6.06,7.92C2.67,62.48.06,68.99.06,81.21v12.57c0,8.89,5.32,13.87,14.5,14.94,13.54,1.53,45.31,2.72,69.04,2.72h-.06ZM83.54,103.4c-23.9,0-55.11-1.08-66.89-2.55-6.29-.79-8.5-3.79-8.5-9.28v-10.3c0-9.9,1.59-14.6,7.25-22.02l7.19-9.4c2.04-10.87,6.68-25.19,9.57-31.41,2.44-5.09,7.14-8.32,13.82-9.11,4.53-.57,19.09-1.19,37.49-1.19s33.19.62,37.38,1.19c6.91.85,11.5,4.07,13.99,9.11,2.95,6.23,7.53,20.55,9.57,31.41l7.19,9.4c5.66,7.36,7.25,12.11,7.25,22.02v10.3c0,5.49-2.32,8.55-8.49,9.28-11.78,1.42-43.1,2.55-66.89,2.55h.07ZM12.92,130.79h8.33c5.27,0,9.29-4.02,9.29-9.17v-16.07l-26.9-3.79v19.87c0,5.15,4.08,9.17,9.29,9.17h-.01ZM145.84,130.79h8.27c5.27,0,9.29-4.02,9.29-9.17v-19.87l-26.9,3.79v16.07c0,5.21,4.08,9.17,9.34,9.17h0Z"/>
    </g>
  </g>
</svg>