<?xml version="1.0" encoding="UTF-8"?>
<svg id="Laag_1" data-name="Laag 1" xmlns="http://www.w3.org/2000/svg" xmlns:xlink="http://www.w3.org/1999/xlink" viewBox="0 0 305.13 138.63">
  <defs>
    <style>
      .cls-1 {
        clip-path: url(#clippath);
      }

      .cls-2 {
        fill: none;
      }

      .cls-2, .cls-3, .cls-4, .cls-5 {
        stroke-width: 0px;
      }

      .cls-4 {
        fill: #aaa5a5;
      }

      .cls-5 {
        fill: #00b4d8;
      }
    </style>
    <clipPath id="clippath">
      <rect class="cls-2" x=".15" width="304.98" height="138.63"/>
    </clipPath>
  </defs>
  <g class="cls-1">
    <g>
      <path class="cls-5" d="M240.87,10.66h-115.86v14.89h115.86v-14.89Z"/>
      <path class="cls-5" d="M250.35,19.8H112.68v14.89h137.67v-14.89Z"/>
      <path class="cls-5" d="M259.77,24.72H103.13v14.89h156.64v-14.89Z"/>
      <path class="cls-5" d="M268.91,34.69H84.98v14.89h183.93v-14.89Z"/>
      <path class="cls-5" d="M293.56,42.1H74.53v14.89h219.04v-14.89h0Z"/>
      <path class="cls-5" d="M297.72,49.58H19.47v14.89h278.25v-14.89h0Z"/>
      <path class="cls-5" d="M296.75,61.42H11.16v14.89h285.59v-14.89Z"/>
      <path class="cls-5" d="M299.94,74.78H7.56v14.89h292.37v-14.89h.01Z"/>
      <path class="cls-5" d="M48.7,88.15H7.77v14.89h40.93v-14.89Z"/>
      <path class="cls-5" d="M48.7,96.73H7.77v14.89h40.93v-14.89Z"/>
      <path class="cls-5" d="M300.7,85.24h-40.93v14.89h40.93v-14.89Z"/>
      <path class="cls-5" d="M295.3,98.33h-32.13v14.89h32.13v-14.89Z"/>
      <path class="cls-5" d="M223.62,83.92H84.98v14.89h138.64v-14.89Z"/>
      <path class="cls-5" d="M219.33,94.66H89.28v14.89h130.05v-14.89Z"/>
      <path class="cls-3" d="M67.95,128.03c10.14,0,18.35-8.22,18.35-18.35s-8.22-18.35-18.35-18.35-18.35,8.22-18.35,18.35,8.22,18.35,18.35,18.35Z"/>
      <path class="cls-3" d="M242.73,129.35c10.13,0,18.35-8.22,18.35-18.35s-8.22-18.35-18.35-18.35-18.35,8.22-18.35,18.35,8.22,18.35,18.35,18.35Z"/>
      <path class="cls-4" d="M22.1,118.89h25.28v-11.91h-24.72c-7.06,0-10.6-3.95-10.6-11.91v-15.58c0-13.43,9.35-22.02,26.11-24.1l41.76-5.12,37.4-23.27c19.25-12.05,30.95-14.82,64.19-14.82h20.29c23.75,0,43.07,9.83,59.62,32.61l21.12,5.47c7.96,2.01,10.53,6.86,10.53,13.92v32.27c0,6.72-3.39,10.66-9.35,10.66h-20.84v11.91h22.85c11.98,0,19.25-7.48,19.25-19.87v-34.97c0-11.91-4.02-21.53-18.91-26.04l-18.01-5.33C256.99,19.58,237.6.13,201.73.13h-20.29c-35.59,0-49.51,3.39-70.64,16.62l-35.04,21.95-39.2,4.85C13.5,46.32,0,59.62,0,79.56v16.96c0,14.68,7.62,22.5,21.95,22.5l.14-.14h.01ZM89.35,118.89h132.27v-11.91H89.35v11.91ZM68.02,138.63c16.2,0,28.95-12.74,28.95-29.01s-12.74-29.01-28.95-29.01-29.02,12.74-29.02,29.01,12.74,29.01,29.02,29.01ZM68.02,126.65c-9.56,0-17.04-7.41-17.04-17.03s7.48-16.96,17.04-16.96,17.04,7.41,17.04,16.96-7.41,17.03-17.04,17.03ZM242.73,138.63c16.27,0,29.02-12.74,29.02-29.01s-12.74-29.01-29.02-29.01-28.95,12.74-28.95,29.01,12.74,29.01,28.95,29.01ZM242.73,126.65c-9.49,0-17.04-7.41-17.04-17.03s7.48-16.96,17.04-16.96,17.04,7.41,17.04,16.96-7.48,17.03-17.04,17.03Z"/>
    </g>
  </g>
</svg>